<svg width="23" height="23" viewBox="0 0 23 23" fill="none" xmlns="http://www.w3.org/2000/svg">
<path d="M0.938115 13.1733L4.74871 14.2463C4.96622 14.3072 5.06772 14.5537 4.95752 14.7509L4.45002 15.6615C4.37172 15.8036 4.40072 15.9834 4.52252 16.0907L6.96722 18.2715C7.08611 18.3788 7.26302 18.3904 7.39352 18.3005L8.33602 17.6596C8.55062 17.5146 8.84062 17.6422 8.87542 17.8974L9.38292 21.4905C9.42352 21.7747 9.77152 21.8907 9.97452 21.6877L13.1065 18.5441C13.1239 18.5267 13.1413 18.5122 13.1616 18.5006C13.3269 18.3904 14.1244 17.7785 13.701 16.4793C13.6952 16.4648 13.6894 16.4474 13.6836 16.4329L13.1471 15.2613C13.0659 15.0844 13.15 14.8756 13.3298 14.7973C17.732 12.8833 20.0607 9.06398 21.2178 5.86238C21.9196 3.91938 22.2125 2.02858 22.3111 1.23688C22.3372 1.02518 22.169 0.842479 21.9573 0.848279C20.2318 0.883079 13.2428 1.55008 8.07212 9.74258C7.97642 9.89338 7.78502 9.95138 7.62551 9.87308L5.67382 8.91318C5.67382 8.91318 5.15181 8.46368 3.94831 9.55408L0.793115 12.5846C0.598815 12.7731 0.680015 13.0979 0.938115 13.1733ZM15.6208 5.86238C15.8731 5.21568 16.5778 4.82708 17.2593 4.95758C18.1728 5.13448 18.6861 6.08568 18.3497 6.93828C18.0974 7.58498 17.3927 7.97358 16.7112 7.84308C15.7977 7.66618 15.2873 6.71498 15.6208 5.86238Z" fill="url(#paint0_linear)"/>
<path d="M0.781645 20.2754C0.929545 20.2754 1.07745 20.2174 1.19055 20.1043L3.85565 17.4392C4.08185 17.213 4.08185 16.8447 3.85565 16.6185C3.62945 16.3923 3.26115 16.3923 3.03495 16.6185L0.369845 19.2836C0.143645 19.5098 0.143645 19.8781 0.369845 20.1043C0.485845 20.2174 0.633745 20.2754 0.781645 20.2754Z" fill="url(#paint1_linear)"/>
<path d="M5.49979 19.0805L2.83469 21.7456C2.60849 21.9718 2.60849 22.3401 2.83469 22.5663C2.94779 22.6794 3.09569 22.7374 3.24359 22.7374C3.39149 22.7374 3.53939 22.6794 3.65249 22.5663L6.31759 19.9012C6.54379 19.675 6.54379 19.3067 6.31759 19.0805C6.09139 18.8543 5.72599 18.8543 5.49979 19.0805Z" fill="url(#paint2_linear)"/>
<path d="M0.781675 22.7375C0.929575 22.7375 1.07748 22.6795 1.19058 22.5664L5.08528 18.6688C5.31148 18.4426 5.31148 18.0743 5.08528 17.8481C4.85908 17.6219 4.49078 17.6219 4.26458 17.8481L0.372775 21.7457C0.146575 21.9719 0.146575 22.3402 0.372775 22.5664C0.485875 22.6795 0.633775 22.7375 0.781675 22.7375Z" fill="url(#paint3_linear)"/>
<defs>
<linearGradient id="paint0_linear" x1="0.685547" y1="-0.0244357" x2="0.685547" y2="21.7901" gradientUnits="userSpaceOnUse">
<stop stop-color="#28C1F7"/>
<stop offset="1" stop-color="#00A7E1"/>
</linearGradient>
<linearGradient id="paint1_linear" x1="0.200195" y1="16.2894" x2="0.200195" y2="20.2754" gradientUnits="userSpaceOnUse">
<stop stop-color="#28C1F7"/>
<stop offset="1" stop-color="#00A7E1"/>
</linearGradient>
<linearGradient id="paint2_linear" x1="2.66504" y1="18.7514" x2="2.66504" y2="22.7374" gradientUnits="userSpaceOnUse">
<stop stop-color="#28C1F7"/>
<stop offset="1" stop-color="#00A7E1"/>
</linearGradient>
<linearGradient id="paint3_linear" x1="0.203125" y1="17.4677" x2="0.203125" y2="22.7375" gradientUnits="userSpaceOnUse">
<stop stop-color="#28C1F7"/>
<stop offset="1" stop-color="#00A7E1"/>
</linearGradient>
</defs>
</svg>
