<svg xmlns="http://www.w3.org/2000/svg" viewBox="0 0 92 92"><defs><style>.cls-1,.cls-2{fill:#fff}.cls-2{fill-rule:evenodd}</style></defs><title>dailykit logo sclae app</title><g id="Layer_2" data-name="Layer 2"><g id="Layer_1-2" data-name="Layer 1"><circle cx="46" cy="46" r="44" class="cls-1"/><path d="M35.17,78.87l11.58.64a34.23,34.23,0,0,0,.62-68.46H35.55Z" class="cls-2"/><path d="M46.88,8.73H33.29l-.4,72.62,1.14.06,12.15.66h.37A36.68,36.68,0,0,0,83.21,45.74v-.35A36.67,36.67,0,0,0,46.88,8.73Zm33.92,37A34.26,34.26,0,0,1,46.55,79.66h-.3l-10.94-.59V79l.39-67.84H46.86a34.27,34.27,0,0,1,34,34.25C80.81,45.5,80.8,45.61,80.8,45.72Z"/><path d="M70.91,32.24h0a6.13,6.13,0,0,0-.74-.05,5.9,5.9,0,0,0-2.67.64l-.74.38h0L49.3,42a4.81,4.81,0,0,0-2.11-1l.06-19a.22.22,0,0,0-.24-.2H45.73a.21.21,0,0,0-.23.19l-.06,19a4.88,4.88,0,0,0,.06,9.62l-.06,6.51s.1.07.23.07H47c.14,0,.24,0,.24-.07l.06-6.54h0A4.87,4.87,0,0,0,48.82,50L60,59.35l.06,0a6.48,6.48,0,0,0,3.13,1l4.16.29-2.44-3.57h0a6.42,6.42,0,0,0-1.79-1.77h0l-12-8.72a4.25,4.25,0,0,0,.07-.8,5.06,5.06,0,0,0,0-.68l18.05-7.54,1.15-.59h0A6,6,0,0,0,72,35.76l2.73-3ZM48.32,47.9a2.89,2.89,0,1,1,.85-2A2.9,2.9,0,0,1,48.32,47.9Z"/><path d="M90.8,46H89.59A43.6,43.6,0,1,1,76.82,15.18,43.44,43.44,0,0,1,89.59,46H92A46,46,0,1,0,46,92,46,46,0,0,0,92,46Z"/></g></g></svg>