<svg height='100px' width='100px'  fill="#ffffff" xmlns="http://www.w3.org/2000/svg" xmlns:xlink="http://www.w3.org/1999/xlink" version="1.1" x="0px" y="0px" viewBox="0 0 22 22" style="enable-background:new 0 0 22 22;" xml:space="preserve"><g><path d="M1,6h4c0.553,0,1-0.447,1-1V1c0-0.553-0.447-1-1-1H1C0.447,0,0,0.447,0,1v4C0,5.553,0.447,6,1,6z"></path><path d="M13,0H9C8.447,0,8,0.447,8,1v4c0,0.553,0.447,1,1,1h4c0.553,0,1-0.447,1-1V1C14,0.447,13.553,0,13,0z"></path><path d="M17,6h4c0.553,0,1-0.447,1-1V1c0-0.553-0.447-1-1-1h-4c-0.553,0-1,0.447-1,1v4C16,5.553,16.447,6,17,6z"></path><path d="M0,13c0,0.553,0.447,1,1,1h4c0.553,0,1-0.447,1-1V9c0-0.553-0.447-1-1-1H1C0.447,8,0,8.447,0,9V13z"></path><path d="M9,14h4c0.553,0,1-0.447,1-1V9c0-0.553-0.447-1-1-1H9C8.447,8,8,8.447,8,9v4C8,13.553,8.447,14,9,14z"></path><path d="M16,13c0,0.553,0.447,1,1,1h4c0.553,0,1-0.447,1-1V9c0-0.553-0.447-1-1-1h-4c-0.553,0-1,0.447-1,1V13z"></path><path d="M0,21c0,0.553,0.447,1,1,1h4c0.553,0,1-0.447,1-1v-4c0-0.553-0.447-1-1-1H1c-0.553,0-1,0.447-1,1V21z"></path><path d="M8,21c0,0.553,0.447,1,1,1h4c0.553,0,1-0.447,1-1v-4c0-0.553-0.447-1-1-1H9c-0.553,0-1,0.447-1,1V21z"></path><path d="M16,21c0,0.553,0.447,1,1,1h4c0.553,0,1-0.447,1-1v-4c0-0.553-0.447-1-1-1h-4c-0.553,0-1,0.447-1,1V21z"></path></g></svg>