<svg xmlns="http://www.w3.org/2000/svg" xmlns:xlink="http://www.w3.org/1999/xlink" width="100" height="100" x="0" y="0" fill="#8e8e8e" enable-background="new 0 0 32 32" version="1.1" viewBox="0 0 32 32" xml:space="preserve"><g><g><path d="M26,4c0-1.7-1.3-3-3-3H9C7.3,1,6,2.3,6,4v26c0,0.6,0.4,1,1,1h14c0.1,0,0.3,0,0.4-0.1c0.1-0.1,0.2-0.1,0.3-0.2l4-4 c0.1-0.1,0.2-0.2,0.2-0.3C26,26.3,26,26.1,26,26V4z M8,4c0-0.6,0.4-1,1-1h14c0.6,0,1,0.4,1,1v21h-3c-0.6,0-1,0.4-1,1v3H8V4z M22.6,27L22,27.6V27H22.6z"/><path d="M14,7h4c0.6,0,1-0.4,1-1s-0.4-1-1-1h-4c-0.6,0-1,0.4-1,1S13.4,7,14,7z"/><path d="M11,13h10c0.6,0,1-0.4,1-1s-0.4-1-1-1H11c-0.6,0-1,0.4-1,1S10.4,13,11,13z"/><path d="M11,18h10c0.6,0,1-0.4,1-1s-0.4-1-1-1H11c-0.6,0-1,0.4-1,1S10.4,18,11,18z"/><path d="M21,23c0.6,0,1-0.4,1-1s-0.4-1-1-1H11c-0.6,0-1,0.4-1,1s0.4,1,1,1H21z"/></g></g></svg>