<svg xmlns="http://www.w3.org/2000/svg" width="24" height="24" viewBox="0 0 24 24"><g fill="none" fill-rule="evenodd"><path fill="#000" fill-rule="nonzero" d="M-851-195H515v696H-851z"/><path fill="#FFF" fill-rule="nonzero" d="M-190-8H49a4 4 0 0 1 4 4v36h-247V-4a4 4 0 0 1 4-4z"/><g fill="#000" fill-rule="nonzero" opacity=".7"><path d="M11.993 14.881c1.44-.058 2.87-.725 4.288-2.003 2.812.772 4.86 1.692 6.146 2.76 1.928 1.601 2.078 4.03.394 5.853-1.123 1.216-3.656 2.052-7.601 2.509l-3.227-8.574L8.766 24c-3.944-.457-6.478-1.293-7.6-2.509-1.685-1.823-1.535-4.252.393-5.853 1.286-1.068 3.334-1.988 6.146-2.76 1.42 1.278 2.848 1.945 4.288 2.003z"/><path d="M11.958 13.882c2.558 0 5.9-2.091 5.9-7.36 0-5.268-3.342-6.522-5.9-6.522C9.4 0 6.056 1.338 6.056 6.523c0 5.184 3.344 7.359 5.902 7.359z"/></g></g></svg>