<svg xmlns="http://www.w3.org/2000/svg" width="24" height="29" viewBox="0 0 24 29">
    <g fill="none" fill-rule="nonzero">
        <path fill="#FFF" d="M10.621 28.987l-1.815-3.638c-3.09.055-4.824.055-5.2 0-.564-.081-.67-.16-.924-.886-.17-.484-.17-1.069 0-1.755l-.995-4.018C.249 18.473-.27 17.779.13 16.608c.4-1.17.92-2.303 1.556-3.399l-.461-4.328c.002-2.157.967-4.09 2.896-5.8C6.05 1.374 8.422.349 11.239.009c3.347-.088 5.982.561 7.903 1.948 2.883 2.08 3.741 4.229 4.394 6.925.653 2.696-.027 3.19-1.248 6.06-1.513 3.554-1.77 4.05-2.023 5.467-.17.946 0 1.937.51 2.973l-10.154 5.606zm2.122-11.89c3.167 0 5.735-2.616 5.735-5.843S15.91 5.41 12.743 5.41c-3.167 0-5.734 2.617-5.734 5.844 0 1.68.696 3.195 1.81 4.261.286.273.598.516.932.725a5.629 5.629 0 0 0 2.992.857z"/>
        <path fill="#000" d="M9.102 15.748L7.98 17.313l2.81-.56z"/>
        <g stroke="#FFF" stroke-linecap="round" stroke-width=".5">
            <path d="M11.053 7.819v2.57M12.314 9.103H9.792"/>
        </g>
        <path stroke="#FFF" stroke-width=".5" d="M10.431 12.489c.98.103 1.763-.052 2.35-.466.588-.413.904-1.032.948-1.855"/>
        <path fill="#D8D8D8" d="M13.959 9.739l-1.003.502 1.376.49z"/>
        <ellipse cx="14.867" cy="13.743" stroke="#FFF" stroke-width=".5" rx="1" ry="1"/>
    </g>
</svg>
