<svg xmlns="http://www.w3.org/2000/svg" xmlns:svg="http://www.w3.org/2000/svg" width="100" height="100" x="0" y="0" fill="#fff" version="1.1" viewBox="0 0 100 100"><g><path fill="#fff" stroke="none" marker="none" d="m 42.000001,960.36219 -1.9062,10.5 c -1.8532,0.5825 -3.6477,1.33411 -5.3438,2.21875 l -8.8125,-6.0625 -11.3125,11.3125 6.0938,8.78125 c -0.8885,1.70098 -1.6345,3.48465 -2.2188,5.34375 l -10.5,1.90625 0,16.00001 10.5,1.9062 c 0.5858,1.8637 1.3586,3.639 2.25,5.3438 l -6.125,8.7812 11.3125,11.3126 8.7813,-6.0626 c 1.7035,0.8904 3.5129,1.6335 5.375,2.2188 l 1.9062,10.5 16,0 1.9062,-10.5 c 1.859,-0.5844 3.6428,-1.3303 5.3438,-2.2188 l 8.7812,6.0626 11.3126,-11.3126 -6.0938,-8.7812 c 0.8847,-1.6934 1.6353,-3.4624 2.2188,-5.3125 l 10.531198,-1.9375 0,-16.00001 -10.531198,-1.90625 c -0.5806,-1.8467 -1.307,-3.62167 -2.1876,-5.3125 l 6.0626,-8.8125 -11.3126,-11.3125 -8.7812,6.0625 c -1.701,-0.88839 -3.4847,-1.63437 -5.3438,-2.21875 l -1.9062,-10.5 -16,0 z m 8,23 c 10.4935,0 19,8.50665 19,19.00001 0,10.4933 -8.5065,19 -19,19 -10.4934,0 -19,-8.5067 -19,-19 0,-10.49336 8.5066,-19.00001 19,-19.00001 z" color="#000" display="inline" enable-background="accumulate" overflow="visible" transform="translate(0,-952.36218)" visibility="visible"/></g></svg>