<svg xmlns="http://www.w3.org/2000/svg" xmlns:xlink="http://www.w3.org/1999/xlink" width="100" height="100" x="0" y="0" fill="#8e8e8e" enable-background="new 0 0 58.946 63.944" version="1.1" viewBox="0 0 58.946 63.944" xml:space="preserve"><path fill="none" stroke="#8e8e8e" stroke-width="3.946" d="M56.973,34.471c0,15.193-12.308,27.5-27.5,27.5 c-15.193,0-27.5-12.307-27.5-27.5c0-15.183,12.307-27.5,27.5-27.5C44.666,6.971,56.973,19.289,56.973,34.471z"/><polygon stroke="#8e8e8e" stroke-linecap="round" stroke-linejoin="round" points="29.416 55.867 29.416 60.708 29.416 58.708 29.416 55.867"/><polygon stroke="#8e8e8e" stroke-linecap="round" stroke-linejoin="round" points="8.262 34.351 3.432 34.351 5.432 34.351 8.262 34.351"/><rect width="3.446" height="3.458" x="27.693" y="1.542" stroke="#8e8e8e" stroke-linecap="round" stroke-linejoin="round" stroke-width="1.036"/><rect width="7.637" height="1.84" x="25.714" y=".564" stroke="#8e8e8e" stroke-linecap="round" stroke-linejoin="round" stroke-width="1.128"/><path stroke="#8e8e8e" d="M29.443,33.454c0-0.75,0.03-23.077,0.03-23.077c13.311,0,24.095,10.792,24.095,24.095H30.473"/></svg>