<svg xmlns="http://www.w3.org/2000/svg" xmlns:xlink="http://www.w3.org/1999/xlink" width="36" height="32" viewBox="0 0 36 32"><defs><rect id="b" width="551" height="120" x="71" y="111" rx="4"/><filter id="a" width="115.2%" height="170%" x="-7.6%" y="-35%" filterUnits="objectBoundingBox"><feMorphology in="SourceAlpha" operator="dilate" radius="1.5" result="shadowSpreadOuter1"/><feOffset in="shadowSpreadOuter1" result="shadowOffsetOuter1"/><feGaussianBlur in="shadowOffsetOuter1" result="shadowBlurOuter1" stdDeviation="12.5"/><feColorMatrix in="shadowBlurOuter1" values="0 0 0 0 0 0 0 0 0 0 0 0 0 0 0 0 0 0 0.5 0"/></filter></defs><g fill="none" fill-rule="evenodd"><path fill="#000" fill-rule="nonzero" d="M-95-127h1366v696H-95z"/><g opacity=".593" transform="translate(-95 -127)"><use fill="#000" filter="url(#a)" xlink:href="#b"/><use fill="#00FF5E" xlink:href="#b"/></g><g fill-rule="nonzero"><circle cx="18.5" cy="20.5" r="1.5" fill="#FFF"/><path stroke="#FFF" stroke-linecap="square" stroke-width=".5" d="M19 20l4.5-4.5"/><path fill="#FFF" d="M18 6c10.667 0 16.667 8.667 18 26H0C1.333 14.667 7.333 6 18 6zm.5 22a8.5 8.5 0 1 0 0-17 8.5 8.5 0 0 0 0 17z"/><path fill="#FFF" d="M16 2h4v5h-4zM5 0h27v2H5z"/></g></g></svg>